<svg xmlns="http://www.w3.org/2000/svg" viewBox="0 0 370.67 346.69"><defs><style>.cls-1{fill:#fff;}</style></defs><g id="Livello_2" data-name="Livello 2"><g id="Livello_1-2" data-name="Livello 1"><path class="cls-1" d="M116.66,131.86l29.51,36.55c-4.15-20.81-36.64-61.73-49-61.46.18,6,4,10.37,6.59,15.23a69.16,69.16,0,0,1,3.24,8.29c-2.85-.23-5.85,0-8.52-.79-21.71-6.76-42.55-15.35-60.42-29.92-9.63-7.86-16.74-17-17.16-30.15-.22-6.77-1-13.53-.53-20.86L36.29,66C30.57,24.68,33,8.45,46,2.07A112.14,112.14,0,0,0,58.37,42.81a130.54,130.54,0,0,0,44.56,49.64c11.76,7.84,23.71,15.47,36,22.32,4.38,2.43,6.13,5.25,7.85,9.58,7.61,19.14,15.49,38.19,23.92,57a64.2,64.2,0,0,1,5.82,23.5c.23,4.82-.08,9.67.17,14.49.61,11.8-6,19.34-15,25.25-6.38,4.19-12.63,3.27-18-2.18a61.36,61.36,0,0,1-5.42-7.13c-1.91-2.62-2.82-4.9.33-7.67,2.89-2.54,2.47-6.14.35-9.12s-4.62-5.52-7-8.26c9.46-3.2,15.1-1,23.36,10,0-3.39.36-5.51-.06-7.46a31.23,31.23,0,0,0-10.48-17.19c-14.4-12.47-30.07-22.61-49.44-25.44a63.4,63.4,0,0,0-10.93-.61c-15.18.42-34-11.9-39.56-26.07a22.28,22.28,0,0,1-.66-3l11.59,1.43c-6-7.62-11.12-14.81-11.25-24.66a125.31,125.31,0,0,1,38.67,10.16c11.94,5.26,23.4,11.62,35.58,17.77C118.25,141.36,117.57,137.28,116.66,131.86Z"/><path class="cls-1" d="M322.35,143.72l-17.87,13.39.35,1c5.18-1.95,10.45-3.68,15.51-5.91,5.29-2.32,10.37-5.11,16.34-7.1a29.21,29.21,0,0,1-2.58,4.29c-4.78,5.54-9.5,11.14-14.57,16.4a25.86,25.86,0,0,1-17.33,8.29c-22.69,2-44.1,8.57-62.18,23.22a106,106,0,0,0-12.54,12.79c-2.86,3.28-2.75,4.7-.9,10.13,5.6-8.34,12.42-13.32,22.9-9.54-5,6-14.74,11-4.24,21-3.3,4-6.19,8.54-10,12-5.41,4.86-12.86,3.88-17.82-1.52-.57-.61-1.06-1.28-1.59-1.93C205.09,227,205.07,227,205.72,209.8c.45-11.77,2.71-22.64,9.81-32.82a152.71,152.71,0,0,0,23.37-51.52,5.64,5.64,0,0,1,2.55-3.27C271.27,107,296,86.05,315.61,57c1.85,6.79,3.77,12.47,4.86,18.3,1.13,6,1.43,12.16,2.18,19a95.46,95.46,0,0,0,19.66-20.54c5.42-7.4,10.76-14.87,16.71-23.11-.32,6.08.36,12.23-1.13,17.81-6.46,24.13-20.83,42.42-42.54,54.88-1.3.74-2.63,1.44-3.91,2.2-.25.15-.36.51-.83,1.2l17.92-5.25a11.46,11.46,0,0,1,3.36-.82c1.75.05,4.58,0,5,.91a6.45,6.45,0,0,1-.66,5.41c-2.75,3.94-6,7.52-9.12,11.22-1.59,1.91-3.23,3.78-4.84,5.67Zm-19.08-14.29c-5.65,1.67-10.52,3.24-15.47,4.54-3.6.95-8,3.29-10.63-.57s1-7.09,3.07-10.24c1.92-2.94,3.83-5.89,6-9.29-16-.41-56.88,49.75-56.19,67.91,3.69-5.39,7.1-10.7,10.85-15.75,3.86-5.21,7.91-10.31,12.16-15.21,4-4.61,8.4-8.91,12.63-13.34l.87.7L262.4,151l1.25,1Z"/><path class="cls-1" d="M166.76,95.45c-3.72,2.14-6.67.93-9.19-2.13-5.83-7.07-7.85-14.67-4.41-23.67.93-2.46-.46-5.8-.62-7.28,3-3,5.39-5.78,8.18-8.13,5-4.27,9.81-9.24,15.59-12.14a43.15,43.15,0,0,0,15.82-13.19c1.38-1.85,3-3.54,4.64-5.47,5.74,2.52,7.95,7.25,9.5,12.7.56,2,2.09,3.76,3.48,5.37s3.24,2.43,4.48,3.94c14.89,18.13,23,38.8,22.28,62.42-.23,7.8-4,14-10.18,19.23-6.91,5.83-9.75,14-10.89,22.88-.19,1.48-.66,3.63-1.7,4.2-8.08,4.39-11.5,11.81-13.31,20.14a70.31,70.31,0,0,0-1.94,15.3c.17,26,.27,52,1.26,77.94.38,9.88,2.95,19.69,4.84,29.47.59,3.05,1.5,6.55,3.49,8.71,5.6,6.08,4.17,12,1.4,18.62-2.86,6.84-5,14-7.95,22.33-4.51-4.45-9.24-7.69-12-12.14-5.75-9.27-10.55-19.13-15.48-28.88a6,6,0,0,1,.3-5.05c7.15-11.24,9.5-23.79,9.58-36.72.17-24.14,0-48.29-.53-72.43-.21-9.05-.5-18.37-5.38-26.62-.29-.49-.62-1.35-.4-1.72,3-5,.81-10-.1-15-.68-3.69-1.16-7.37,3-9.94,1,.79,2,1.63,3.05,2.48l-.13-.18c3.6,8.41,9.59,9.54,14.3,2.05,2.59-4.1,3.22-9.41,4.77-14.17.65-2,1.39-3.91,2.08-5.86l-.17.13c6.06-2.61,8.33-8.1,6.08-14-1.29-3.35-2.68-6.82-3-10.34-.65-6.6-.82-13.17-6.78-17.67-.29-.21-.23-.89-.43-1.85l8-.43-1.8-2.91.13.21c-1.92-3.76-3.35-7.9-5.87-11.2-4.38-5.74-10.22-6.65-16.28-2.71-3.42,2.22-6.17,5.47-9.34,8.11a61.72,61.72,0,0,1-8,6c-3.45,2-3.59,4.2,0,6.74C170.67,87,171.12,91.28,166.76,95.45Z"/><path class="cls-1" d="M166.76,95.45c4.36-4.17,3.91-8.48.35-12.86-1-2.44-2-5.42,1.81-5.62,3.33-.18,4.43-2.16,6.06-4.23a49.27,49.27,0,0,1,7-7.67c7.05-5.8,13.8-4.87,19.22,2.43,1.94,2.62,3.61,5.43,5.39,8.16l-.13-.21c-.82.69-1.55,1.84-2.46,2a65.91,65.91,0,0,1-7.6.46c1.88,2.18,2.87,3.72,4.22,4.83,4,3.33,5.41,7.43,5,12.64a20.81,20.81,0,0,0,1.47,9.69c3,6.66,2.54,12.36-2.69,17.55l.17-.13c-3.19-.28-4.08,1.22-4.38,4.34a32.93,32.93,0,0,1-2.86,10.85c-4,8.27-7.27,8.76-13.91,2.79l.13.18c-1.44-2.47-2.41-5.45-4.42-7.32-6.81-6.34-10.65-13.74-10.78-23.21,0-2.48-1.73-5-2.91-7.37a30.79,30.79,0,0,0-2.77-4.07Z"/><path class="cls-1" d="M327.72,83.73l-8.66-32.61C332.78,37.28,333.49,18.2,336.72,0,356.8,15.84,351.64,63.86,327.72,83.73Z"/><path class="cls-1" d="M209.45,35.64C224,33.81,236,43.33,239.26,59.12c2,9.91,1.25,19.77-1.63,29.72C233.12,68.55,226.19,49.59,209.45,35.64Z"/><path class="cls-1" d="M12.94,3.07c4.18,6.81,7.91,13.64,12.37,20,3.34,4.72,5.87,8.7,4.44,15.26-1.2,5.54.66,11.73,1.15,17.34C19.37,45.87,9.8,18.49,12.94,3.07Z"/><path class="cls-1" d="M322.23,143.84c6.67-2.91,12.53-6.79,16.49-13.15a5,5,0,0,1,2.87-2.09c9.09-1.85,18.22-3.53,29.08-5.58-3.22,2.86-5.46,5-7.89,7-10.89,8.64-23.58,12.73-37.17,14.4-1,.13-2.16-.44-3.25-.68Z"/><path class="cls-1" d="M46.52,136.41c-12.76-3.63-21.6-14.58-20.59-25.22,5.2,3.66,10.49,7,15.34,11,1.39,1.12,1.51,3.8,2.21,5.77Z"/><path class="cls-1" d="M307.36,59.36l-4.27-17.09,18-1,1.23,1.32L309.14,60.22Z"/><path class="cls-1" d="M0,21.25c2,8.13,6,14.89,11.2,21.41,2.12,2.68.85,8.06,1.17,12.81C4.59,51-.52,36.21,0,21.25Z"/><path class="cls-1" d="M160.65,117l11.58,21.38c-3.47.93-7.65.56-10.6-3.08C157,129.51,159,123.18,160.65,117Z"/><path class="cls-1" d="M349.54,111.35c2.7-9.17,8.49-14.69,17.47-16.71C367.66,101.37,360.41,108.43,349.54,111.35Z"/></g></g></svg>